<?xml version="1.0" standalone="no"?>
<!DOCTYPE svg PUBLIC "-//W3C//DTD SVG 20010904//EN"
 "http://www.w3.org/TR/2001/REC-SVG-20010904/DTD/svg10.dtd">
<svg version="1.0" xmlns="http://www.w3.org/2000/svg"
 width="168.000000pt" height="168.000000pt" viewBox="0 0 168.000000 168.000000"
 preserveAspectRatio="xMidYMid meet">
<metadata>
Created by potrace 1.11, written by Peter Selinger 2001-2013
</metadata>
<g transform="translate(0.000000,168.000000) scale(0.100000,-0.100000)"
fill="#000000" stroke="none">
<path d="M846 1538 c-3 -13 -6 -44 -6 -70 0 -46 -1 -48 -28 -48 -47 0 -178
-37 -246 -70 -66 -31 -84 -53 -66 -75 13 -16 33 -11 155 41 76 32 104 38 182
42 116 5 202 -10 310 -54 47 -19 91 -33 99 -30 20 8 17 32 -8 55 -27 26 -185
79 -263 89 l-60 7 -6 56 c-3 31 -9 61 -13 68 -12 19 -43 12 -50 -11z"/>
<path d="M778 1290 c-110 -17 -148 -53 -148 -136 0 -63 25 -99 79 -115 61 -18
301 -8 334 14 40 26 60 64 60 112 0 53 -24 92 -68 111 -43 18 -183 25 -257 14z
m242 -80 c11 -11 20 -30 20 -43 0 -58 -49 -76 -210 -77 -117 0 -140 11 -140
71 0 57 30 68 188 69 109 0 124 -2 142 -20z"/>
<path d="M691 964 c-79 -16 -136 -40 -163 -71 -21 -23 -50 -226 -37 -260 10
-26 18 -28 43 -10 21 15 35 78 36 159 0 49 4 59 26 77 44 35 101 45 264 45
178 1 261 -8 290 -32 18 -15 22 -31 26 -117 7 -129 10 -145 33 -145 36 0 41
22 35 136 -10 169 -29 196 -152 220 -88 17 -308 16 -401 -2z"/>
<path d="M657 873 c-26 -25 9 -88 61 -110 l35 -14 -6 -127 c-6 -154 -38 -286
-97 -404 -36 -72 -39 -83 -26 -96 39 -39 108 73 153 248 18 70 26 132 30 236
l6 142 36 6 c47 8 135 8 155 0 25 -9 19 -40 -14 -78 -47 -53 -60 -95 -60 -195
0 -105 22 -188 74 -273 50 -83 106 -148 127 -148 33 0 22 37 -40 138 -72 117
-94 188 -95 303 l-1 86 43 46 c47 52 55 94 26 136 -30 43 -73 52 -200 45
l-114 -7 -34 37 c-35 36 -47 42 -59 29z"/>
</g>
</svg>
